<svg width="82" height="56" viewBox="0 0 82 56" fill="none" xmlns="http://www.w3.org/2000/svg">
<path fill-rule="evenodd" clip-rule="evenodd" d="M41 56C63.6437 56 82 43.464 82 28C82 12.536 63.6437 0 41 0C18.3563 0 0 12.536 0 28C0 43.464 18.3563 56 41 56ZM41 53C63.6437 53 82 41.8071 82 28C82 14.1929 63.6437 3 41 3C18.3563 3 0 14.1929 0 28C0 41.8071 18.3563 53 41 53Z" fill="black"/>
<path d="M21.0525 38L24.8925 24.208L29.1805 38H31.1325L35.4525 22.608L38.2045 21.904V21.488H31.9645V21.904L34.3965 22.576L31.2285 34.192L27.2605 21.488H24.6045L21.1485 34.192L17.4365 22.64L19.5165 21.904V21.488H11.8365V21.904L14.3005 22.8L19.1005 38H21.0525ZM52.7122 32.368C51.4323 35.376 49.3202 37.168 46.8562 37.168C43.4962 37.168 41.0002 34.064 41.0002 29.168V28.624L49.2563 31.888C50.6003 30.8 51.9443 28.72 51.9443 26.16C51.9443 23.056 49.1923 21.008 45.9602 21.008C42.1522 21.008 39.3682 23.44 38.4402 27.024L35.5602 26L35.5282 26.48L38.3122 27.568C38.1522 28.272 38.0882 28.976 38.0882 29.744C38.0882 34.608 41.0642 38.352 45.6082 38.352C49.5443 38.352 52.2962 35.728 53.3843 32.368H52.7122ZM46.2802 22.256C48.4242 22.256 50.4082 23.76 50.4082 26.224C50.4082 28.048 49.2882 29.456 47.0483 29.456C45.9922 29.456 44.3282 29.04 41.0642 27.952C41.4482 24.24 43.5922 22.256 46.2802 22.256ZM62.3745 38.352C66.3745 38.352 68.9025 34.704 68.9025 30.416C68.9025 25.328 65.3185 21.008 58.1505 21.008V12.4H57.6065L53.1585 13.168V13.584L55.2065 14.224V38H55.8145L57.5745 35.888C58.6945 37.264 60.1985 38.352 62.3745 38.352ZM61.9265 36.944C60.4545 36.944 59.0465 36.176 58.1505 35.216V22.096C63.0785 22.096 65.8625 25.936 65.8625 30.704C65.8625 34.384 64.1345 36.944 61.9265 36.944Z" fill="black"/>
</svg>
