<svg width="200" height="200" viewBox="0 0 200 200" fill="none" xmlns="http://www.w3.org/2000/svg">
<path fill-rule="evenodd" clip-rule="evenodd" d="M99.9607 52H100.039C100.013 51.3366 100 50.6698 100 50C100 22.3858 122.386 0 150 0C177.614 0 200 22.3858 200 50C200 50.6698 199.987 51.3366 199.961 52H200C200 133.738 100 200 100 200C100 200 0 133.738 0 52H0.039269C0.0131713 51.3366 0 50.6698 0 50C0 22.3858 22.3858 0 50 0C77.6142 0 100 22.3858 100 50C100 50.6698 99.9868 51.3366 99.9607 52Z" fill="black"/>
<path fill-rule="evenodd" clip-rule="evenodd" d="M196 54C196 26.3858 174.51 4 148 4C121.49 4 100 26.3858 100 54C100 26.3858 78.5097 4 52 4C25.4903 4 4 26.3858 4 54C4 129.738 100 200 100 200C100 200 196 130.738 196 54Z" fill="white"/>
</svg>
