<svg width="76" height="80" viewBox="0 0 76 80" fill="none" xmlns="http://www.w3.org/2000/svg">
<g clip-path="url(#clip0_232_33316)">
<path fill-rule="evenodd" clip-rule="evenodd" d="M10.3591 73.0918C24.3206 84.8069 48.0134 79.5561 63.2784 61.3639C78.5435 43.1717 79.6003 18.927 65.6388 7.21199C51.6774 -4.50307 27.9846 0.747701 12.7195 18.9399C-2.54557 37.1321 -3.60235 61.3768 10.3591 73.0918Z" fill="white"/>
<path fill-rule="evenodd" clip-rule="evenodd" d="M10.3591 73.0918C24.3206 84.8069 48.0134 79.5561 63.2784 61.3639C78.5435 43.1717 79.6003 18.927 65.6388 7.21199C51.6774 -4.50307 27.9846 0.747701 12.7195 18.9399C-2.54557 37.1321 -3.60235 61.3768 10.3591 73.0918ZM12.7195 18.9399C26.5646 2.44 49.1062 -1.43889 63.0677 10.2762C77.0292 21.9912 77.1235 44.864 63.2784 61.3639C49.4334 77.8638 26.8917 81.7427 12.9303 70.0276C-1.0312 58.3126 -1.12556 35.4398 12.7195 18.9399Z" fill="black"/>
<path fill-rule="evenodd" clip-rule="evenodd" d="M42 40L20 20L36.5 40L20 60L42 40Z" fill="black"/>
<path fill-rule="evenodd" clip-rule="evenodd" d="M37 40L59 20L42.5 40L59 60L37 40Z" fill="black"/>
</g>
<defs>
<clipPath id="clip0_232_33316">
<rect width="76" height="80" fill="white"/>
</clipPath>
</defs>
</svg>
