<svg width="192" height="200" viewBox="0 0 192 200" fill="none" xmlns="http://www.w3.org/2000/svg">
<path fill-rule="evenodd" clip-rule="evenodd" d="M0.0361275 52H0C0 133.738 96 200 96 200C96 200 192 133.738 192 52H191.964C191.988 51.3366 192 50.6698 192 50C192 22.3858 171.405 0 146 0C120.595 0 100 22.3858 100 50C100 50.6698 100.012 51.3366 100.036 52H91.9639C91.9879 51.3366 92 50.6698 92 50C92 22.3858 71.4051 0 46 0C20.5949 0 0 22.3858 0 50C0 50.6698 0.0121176 51.3366 0.0361275 52Z" fill="white"/>
</svg>
